<svg xmlns="http://www.w3.org/2000/svg" width="1600" height="920" viewBox="0 0 1600 920" role="img" aria-labelledby="title desc">
  <title id="title">Campaign Operations Board Snapshot</title>
  <desc id="desc">A mock snapshot of operations board with campaign builder and generated ad packs.</desc>
  <defs>
    <linearGradient id="bg2" x1="0" y1="0" x2="1" y2="1">
      <stop offset="0%" stop-color="#0f1829" />
      <stop offset="100%" stop-color="#09111d" />
    </linearGradient>
  </defs>

  <rect x="0" y="0" width="1600" height="920" fill="url(#bg2)" />
  <rect x="30" y="26" width="1540" height="70" rx="14" fill="#12213a" stroke="#2d476c" />
  <text x="62" y="70" fill="#e1eeff" font-size="31" font-family="Arial, Helvetica, sans-serif" font-weight="700">Team Ad Ops Workspace</text>
  <rect x="1290" y="44" width="250" height="36" rx="18" fill="#67cdb5" />
  <text x="1337" y="68" fill="#0c2d25" font-size="18" font-family="Arial, Helvetica, sans-serif" font-weight="700">Build Campaigns</text>

  <rect x="30" y="116" width="350" height="774" rx="14" fill="#12213a" stroke="#2d476c" />
  <text x="58" y="156" fill="#d6e7ff" font-size="24" font-family="Arial, Helvetica, sans-serif" font-weight="700">Customer Roster</text>

  <rect x="58" y="182" width="294" height="82" rx="10" fill="#0f1a2f" stroke="#39557a" />
  <text x="78" y="218" fill="#e4efff" font-size="22" font-family="Arial, Helvetica, sans-serif">Northline Dental</text>
  <text x="78" y="245" fill="#91aed5" font-size="17" font-family="Arial, Helvetica, sans-serif">Healthcare | Growth</text>

  <rect x="58" y="278" width="294" height="82" rx="10" fill="#0f1a2f" stroke="#39557a" />
  <text x="78" y="314" fill="#e4efff" font-size="22" font-family="Arial, Helvetica, sans-serif">Oakline Med Spa</text>
  <text x="78" y="341" fill="#91aed5" font-size="17" font-family="Arial, Helvetica, sans-serif">Aesthetics | Core</text>

  <rect x="58" y="380" width="294" height="486" rx="10" fill="#0f1a2f" stroke="#39557a" />
  <text x="78" y="420" fill="#c8dbfb" font-size="20" font-family="Arial, Helvetica, sans-serif">Campaign Builder Inputs</text>
  <rect x="78" y="440" width="254" height="44" rx="8" fill="#0c1424" stroke="#365175" />
  <rect x="78" y="498" width="254" height="44" rx="8" fill="#0c1424" stroke="#365175" />
  <rect x="78" y="556" width="254" height="44" rx="8" fill="#0c1424" stroke="#365175" />
  <rect x="78" y="614" width="254" height="118" rx="8" fill="#0c1424" stroke="#365175" />
  <rect x="78" y="746" width="254" height="44" rx="22" fill="#64c9b1" />
  <text x="136" y="774" fill="#08261f" font-size="18" font-family="Arial, Helvetica, sans-serif" font-weight="700">Generate Packs</text>

  <rect x="398" y="116" width="1172" height="774" rx="14" fill="#12213a" stroke="#2d476c" />
  <text x="430" y="156" fill="#d6e7ff" font-size="24" font-family="Arial, Helvetica, sans-serif" font-weight="700">Generated Ad Input Packs</text>

  <rect x="430" y="182" width="1110" height="40" rx="20" fill="#0f1a2f" stroke="#39557a" />
  <text x="922" y="209" fill="#cde2ff" font-size="16" font-family="Arial, Helvetica, sans-serif">Ads 1-2 of 8</text>

  <rect x="430" y="240" width="546" height="628" rx="12" fill="#0f1a2f" stroke="#39557a" />
  <text x="456" y="276" fill="#e4efff" font-size="22" font-family="Arial, Helvetica, sans-serif">Option A | Facebook</text>
  <text x="456" y="306" fill="#93afd5" font-size="16" font-family="Arial, Helvetica, sans-serif">Mission-Critical Fields</text>
  <rect x="456" y="322" width="494" height="180" rx="10" fill="#0c1424" stroke="#365175" />
  <rect x="456" y="518" width="494" height="42" rx="8" fill="#0c1424" stroke="#365175" />
  <text x="476" y="545" fill="#9ec0ed" font-size="15" font-family="Arial, Helvetica, sans-serif">Advanced Filter (24 fields)</text>
  <rect x="456" y="576" width="494" height="182" rx="10" fill="#ffffff" stroke="#d0dae8" />
  <rect x="472" y="592" width="120" height="14" rx="7" fill="#dbe8ff" />
  <rect x="472" y="620" width="454" height="14" rx="7" fill="#ecf2fb" />
  <rect x="472" y="646" width="454" height="100" rx="7" fill="#f4f7fc" />
  <rect x="456" y="780" width="184" height="50" rx="24" fill="#102238" stroke="#4c6f94" />
  <text x="513" y="812" fill="#deeeff" font-size="19" font-family="Arial, Helvetica, sans-serif">Publish</text>

  <rect x="994" y="240" width="546" height="628" rx="12" fill="#0f1a2f" stroke="#39557a" />
  <text x="1020" y="276" fill="#e4efff" font-size="22" font-family="Arial, Helvetica, sans-serif">Option B | Google</text>
  <text x="1020" y="306" fill="#93afd5" font-size="16" font-family="Arial, Helvetica, sans-serif">Mission-Critical Fields</text>
  <rect x="1020" y="322" width="494" height="180" rx="10" fill="#0c1424" stroke="#365175" />
  <rect x="1020" y="518" width="494" height="42" rx="8" fill="#0c1424" stroke="#365175" />
  <text x="1040" y="545" fill="#9ec0ed" font-size="15" font-family="Arial, Helvetica, sans-serif">Advanced Filter (20 fields)</text>
  <rect x="1020" y="576" width="494" height="182" rx="10" fill="#ffffff" stroke="#d0dae8" />
  <rect x="1036" y="592" width="120" height="14" rx="7" fill="#dbe8ff" />
  <rect x="1036" y="620" width="454" height="14" rx="7" fill="#ecf2fb" />
  <rect x="1036" y="646" width="454" height="100" rx="7" fill="#f4f7fc" />
  <rect x="1020" y="780" width="184" height="50" rx="24" fill="#102238" stroke="#4c6f94" />
  <text x="1077" y="812" fill="#deeeff" font-size="19" font-family="Arial, Helvetica, sans-serif">Publish</text>
</svg>
